<mxfile host="app.diagrams.net" modified="2023-08-20T07:55:12.491Z" agent="Mozilla/5.0 (Windows NT 10.0; Win64; x64) AppleWebKit/537.36 (KHTML, like Gecko) Chrome/117.0.0.0 Safari/537.36 Edg/117.0.0.0" version="21.6.8" etag="u0DZWdn_iZb_7jM5_1aq" type="github">
  <diagram name="Pagina-1" id="KPxg2nr7AbcTNklis-8x">
    <mxGraphModel>
      <root>
        <mxCell id="0" />
        <mxCell id="1" parent="0" />
      </root>
    </mxGraphModel>
  </diagram>
</mxfile>
